<svg id="Capa_1" data-name="Capa 1" xmlns="http://www.w3.org/2000/svg" viewBox="0 0 626.16 646.66"><defs><style>.cls-1{fill:#ffb846;}</style></defs><path class="cls-1" d="M313.08,563.55c-116.34,0-169.34-79.61-169.34-153.58,0-75.1,40.56-112.17,62.94-128.43-.08-6.22-.21-12.53-.35-18.89-1.23-57.39-2.5-116.72,32.27-152.24,17.73-18.12,42.78-27.3,74.48-27.3,33.34,0,59.48,9.56,77.68,28.42,32,33.16,30.21,84.59,29,118.63-.18,5.31-.36,10.18-.36,14.41a19.69,19.69,0,1,1-39.38,0c0-4.63.18-10,.39-15.8,1-27.38,2.41-68.76-18-89.89-10.65-11-26.79-16.39-49.35-16.39-21,0-36.16,5.06-46.34,15.46-23.19,23.69-22,76.9-21,123.85.22,10.19.43,20.27.43,30v10.53l-8.76,5.85c-25.26,16.84-54.24,43.62-54.24,101.76,0,56.85,40.18,114.2,130,114.2,89.54,0,129.75-61,130-121.62-2.72-54.72-21.86-68.56-27.11-71.34H301.27a19.69,19.69,0,0,1,0-39.38l122,.38c5.57,1.11,54.59,13.64,59.13,108.94l0,.94C482.42,479.85,429.43,563.55,313.08,563.55Z"/><circle class="cls-1" cx="313.08" cy="402.09" r="35.44"/></svg>