<?xml version="1.0" encoding="UTF-8"?>
<svg xmlns="http://www.w3.org/2000/svg" xmlns:xlink="http://www.w3.org/1999/xlink" width="75pt" height="74.999997pt" viewBox="0 0 75 74.999997" version="1.2">
<defs>
<clipPath id="clip1">
  <path d="M 3.589844 3.589844 L 71.089844 3.589844 L 71.089844 71.089844 L 3.589844 71.089844 Z M 3.589844 3.589844 "/>
</clipPath>
<clipPath id="clip2">
  <path d="M 19.425781 10.359375 L 55.425781 10.359375 L 55.425781 64.621094 L 19.425781 64.621094 Z M 19.425781 10.359375 "/>
</clipPath>
</defs>
<g id="surface1">
<g clip-path="url(#clip1)" clip-rule="nonzero">
<path style=" stroke:none;fill-rule:nonzero;fill:rgb(81.17981%,66.268921%,37.249756%);fill-opacity:1;" d="M 71.089844 37.339844 C 71.089844 38.445312 71.035156 39.546875 70.925781 40.648438 C 70.816406 41.746094 70.65625 42.839844 70.441406 43.921875 C 70.226562 45.007812 69.957031 46.078125 69.636719 47.136719 C 69.316406 48.195312 68.941406 49.234375 68.519531 50.253906 C 68.097656 51.277344 67.625 52.273438 67.105469 53.25 C 66.582031 54.222656 66.015625 55.171875 65.402344 56.089844 C 64.785156 57.007812 64.128906 57.894531 63.429688 58.75 C 62.726562 59.605469 61.984375 60.421875 61.203125 61.203125 C 60.421875 61.984375 59.605469 62.726562 58.75 63.429688 C 57.894531 64.128906 57.007812 64.785156 56.089844 65.402344 C 55.171875 66.015625 54.222656 66.582031 53.25 67.105469 C 52.273438 67.625 51.277344 68.097656 50.253906 68.519531 C 49.234375 68.941406 48.195312 69.316406 47.136719 69.636719 C 46.078125 69.957031 45.007812 70.226562 43.921875 70.441406 C 42.839844 70.65625 41.746094 70.816406 40.648438 70.925781 C 39.546875 71.035156 38.445312 71.089844 37.339844 71.089844 C 36.234375 71.089844 35.128906 71.035156 34.03125 70.925781 C 32.929688 70.816406 31.839844 70.65625 30.753906 70.441406 C 29.671875 70.226562 28.597656 69.957031 27.542969 69.636719 C 26.484375 69.316406 25.445312 68.941406 24.421875 68.519531 C 23.402344 68.097656 22.402344 67.625 21.429688 67.105469 C 20.453125 66.582031 19.507812 66.015625 18.589844 65.402344 C 17.667969 64.785156 16.78125 64.128906 15.929688 63.429688 C 15.074219 62.726562 14.253906 61.984375 13.472656 61.203125 C 12.691406 60.421875 11.949219 59.605469 11.25 58.75 C 10.546875 57.894531 9.890625 57.007812 9.277344 56.089844 C 8.664062 55.171875 8.09375 54.222656 7.574219 53.25 C 7.054688 52.273438 6.582031 51.277344 6.15625 50.253906 C 5.734375 49.234375 5.363281 48.195312 5.042969 47.136719 C 4.722656 46.078125 4.453125 45.007812 4.238281 43.921875 C 4.023438 42.839844 3.859375 41.746094 3.75 40.648438 C 3.644531 39.546875 3.589844 38.445312 3.589844 37.339844 C 3.589844 36.234375 3.644531 35.128906 3.75 34.03125 C 3.859375 32.929688 4.023438 31.839844 4.238281 30.753906 C 4.453125 29.671875 4.722656 28.597656 5.042969 27.542969 C 5.363281 26.484375 5.734375 25.445312 6.15625 24.421875 C 6.582031 23.402344 7.054688 22.402344 7.574219 21.429688 C 8.09375 20.453125 8.664062 19.507812 9.277344 18.589844 C 9.890625 17.667969 10.546875 16.78125 11.25 15.929688 C 11.949219 15.074219 12.691406 14.253906 13.472656 13.472656 C 14.253906 12.691406 15.074219 11.949219 15.929688 11.25 C 16.78125 10.546875 17.667969 9.890625 18.589844 9.277344 C 19.507812 8.664062 20.453125 8.09375 21.429688 7.574219 C 22.402344 7.054688 23.402344 6.582031 24.421875 6.15625 C 25.445312 5.734375 26.484375 5.363281 27.542969 5.042969 C 28.597656 4.722656 29.671875 4.453125 30.753906 4.238281 C 31.839844 4.023438 32.929688 3.859375 34.03125 3.75 C 35.128906 3.644531 36.234375 3.589844 37.339844 3.589844 C 38.445312 3.589844 39.546875 3.644531 40.648438 3.75 C 41.746094 3.859375 42.839844 4.023438 43.921875 4.238281 C 45.007812 4.453125 46.078125 4.722656 47.136719 5.042969 C 48.195312 5.363281 49.234375 5.734375 50.253906 6.15625 C 51.277344 6.582031 52.273438 7.054688 53.25 7.574219 C 54.222656 8.09375 55.171875 8.664062 56.089844 9.277344 C 57.007812 9.890625 57.894531 10.546875 58.75 11.25 C 59.605469 11.949219 60.421875 12.691406 61.203125 13.472656 C 61.984375 14.253906 62.726562 15.074219 63.429688 15.929688 C 64.128906 16.78125 64.785156 17.667969 65.402344 18.589844 C 66.015625 19.507812 66.582031 20.453125 67.105469 21.429688 C 67.625 22.402344 68.097656 23.402344 68.519531 24.421875 C 68.941406 25.445312 69.316406 26.484375 69.636719 27.542969 C 69.957031 28.597656 70.226562 29.671875 70.441406 30.753906 C 70.65625 31.839844 70.816406 32.929688 70.925781 34.03125 C 71.035156 35.128906 71.089844 36.234375 71.089844 37.339844 Z M 71.089844 37.339844 "/>
</g>
<path style=" stroke:none;fill-rule:nonzero;fill:rgb(81.17981%,66.268921%,37.249756%);fill-opacity:1;" d="M 69.132812 37.339844 C 69.132812 38.378906 69.082031 39.417969 68.980469 40.457031 C 68.878906 41.492188 68.722656 42.519531 68.519531 43.542969 C 68.316406 44.5625 68.066406 45.570312 67.761719 46.566406 C 67.460938 47.5625 67.109375 48.542969 66.710938 49.503906 C 66.3125 50.46875 65.867188 51.40625 65.378906 52.324219 C 64.886719 53.246094 64.351562 54.136719 63.773438 55.003906 C 63.195312 55.867188 62.574219 56.703125 61.914062 57.507812 C 61.253906 58.3125 60.554688 59.082031 59.820312 59.820312 C 59.082031 60.554688 58.3125 61.253906 57.507812 61.914062 C 56.703125 62.574219 55.867188 63.195312 55.003906 63.773438 C 54.136719 64.351562 53.246094 64.886719 52.324219 65.378906 C 51.40625 65.867188 50.46875 66.3125 49.503906 66.710938 C 48.542969 67.109375 47.5625 67.460938 46.566406 67.761719 C 45.570312 68.066406 44.5625 68.316406 43.542969 68.519531 C 42.519531 68.722656 41.492188 68.878906 40.457031 68.980469 C 39.417969 69.082031 38.378906 69.132812 37.339844 69.132812 C 36.296875 69.132812 35.257812 69.082031 34.222656 68.980469 C 33.1875 68.878906 32.15625 68.722656 31.136719 68.519531 C 30.113281 68.316406 29.105469 68.066406 28.109375 67.761719 C 27.113281 67.460938 26.132812 67.109375 25.171875 66.710938 C 24.210938 66.3125 23.269531 65.867188 22.351562 65.378906 C 21.433594 64.886719 20.542969 64.351562 19.675781 63.773438 C 18.808594 63.195312 17.972656 62.574219 17.167969 61.914062 C 16.363281 61.253906 15.59375 60.554688 14.859375 59.820312 C 14.121094 59.082031 13.421875 58.3125 12.761719 57.507812 C 12.101562 56.703125 11.480469 55.867188 10.902344 55.003906 C 10.324219 54.136719 9.789062 53.246094 9.300781 52.324219 C 8.808594 51.40625 8.363281 50.46875 7.964844 49.503906 C 7.566406 48.542969 7.214844 47.5625 6.914062 46.566406 C 6.613281 45.570312 6.359375 44.5625 6.15625 43.542969 C 5.953125 42.519531 5.800781 41.492188 5.699219 40.457031 C 5.597656 39.417969 5.546875 38.378906 5.546875 37.339844 C 5.546875 36.296875 5.597656 35.257812 5.699219 34.222656 C 5.800781 33.1875 5.953125 32.15625 6.15625 31.136719 C 6.359375 30.113281 6.613281 29.105469 6.914062 28.109375 C 7.214844 27.113281 7.566406 26.132812 7.964844 25.171875 C 8.363281 24.210938 8.808594 23.269531 9.300781 22.351562 C 9.789062 21.433594 10.324219 20.542969 10.902344 19.675781 C 11.480469 18.808594 12.101562 17.972656 12.761719 17.167969 C 13.421875 16.363281 14.121094 15.59375 14.859375 14.859375 C 15.59375 14.121094 16.363281 13.421875 17.167969 12.761719 C 17.972656 12.101562 18.808594 11.480469 19.675781 10.902344 C 20.542969 10.324219 21.433594 9.789062 22.351562 9.300781 C 23.269531 8.808594 24.210938 8.363281 25.171875 7.964844 C 26.132812 7.566406 27.113281 7.214844 28.109375 6.914062 C 29.105469 6.613281 30.113281 6.359375 31.136719 6.15625 C 32.15625 5.953125 33.1875 5.800781 34.222656 5.699219 C 35.257812 5.597656 36.296875 5.546875 37.339844 5.546875 C 38.378906 5.546875 39.417969 5.597656 40.457031 5.699219 C 41.492188 5.800781 42.519531 5.953125 43.542969 6.15625 C 44.5625 6.359375 45.570312 6.613281 46.566406 6.914062 C 47.5625 7.214844 48.542969 7.566406 49.503906 7.964844 C 50.46875 8.363281 51.40625 8.808594 52.324219 9.300781 C 53.246094 9.789062 54.136719 10.324219 55.003906 10.902344 C 55.867188 11.480469 56.703125 12.101562 57.507812 12.761719 C 58.3125 13.421875 59.082031 14.121094 59.820312 14.859375 C 60.554688 15.59375 61.253906 16.363281 61.914062 17.167969 C 62.574219 17.972656 63.195312 18.808594 63.773438 19.675781 C 64.351562 20.542969 64.886719 21.433594 65.378906 22.351562 C 65.867188 23.269531 66.3125 24.210938 66.710938 25.171875 C 67.109375 26.132812 67.460938 27.113281 67.761719 28.109375 C 68.066406 29.105469 68.316406 30.113281 68.519531 31.136719 C 68.722656 32.15625 68.878906 33.1875 68.980469 34.222656 C 69.082031 35.257812 69.132812 36.296875 69.132812 37.339844 Z M 69.132812 37.339844 "/>
<path style=" stroke:none;fill-rule:nonzero;fill:rgb(81.17981%,66.268921%,37.249756%);fill-opacity:1;" d="M 64.242188 37.339844 C 64.242188 38.21875 64.199219 39.097656 64.113281 39.976562 C 64.023438 40.851562 63.894531 41.722656 63.722656 42.585938 C 63.550781 43.453125 63.339844 44.304688 63.082031 45.148438 C 62.828125 45.992188 62.53125 46.820312 62.191406 47.632812 C 61.855469 48.449219 61.480469 49.242188 61.0625 50.019531 C 60.648438 50.796875 60.195312 51.550781 59.707031 52.285156 C 59.21875 53.015625 58.695312 53.722656 58.132812 54.40625 C 57.574219 55.085938 56.984375 55.738281 56.363281 56.363281 C 55.738281 56.984375 55.085938 57.574219 54.40625 58.132812 C 53.722656 58.695312 53.015625 59.21875 52.285156 59.707031 C 51.550781 60.195312 50.796875 60.648438 50.019531 61.0625 C 49.242188 61.480469 48.449219 61.855469 47.632812 62.191406 C 46.820312 62.53125 45.992188 62.828125 45.148438 63.082031 C 44.304688 63.339844 43.453125 63.550781 42.585938 63.722656 C 41.722656 63.894531 40.851562 64.023438 39.976562 64.113281 C 39.097656 64.199219 38.21875 64.242188 37.339844 64.242188 C 36.457031 64.242188 35.578125 64.199219 34.703125 64.113281 C 33.824219 64.023438 32.953125 63.894531 32.089844 63.722656 C 31.226562 63.550781 30.371094 63.339844 29.53125 63.082031 C 28.6875 62.828125 27.859375 62.53125 27.042969 62.191406 C 26.230469 61.855469 25.433594 61.480469 24.65625 61.0625 C 23.878906 60.648438 23.125 60.195312 22.394531 59.707031 C 21.660156 59.21875 20.953125 58.695312 20.273438 58.132812 C 19.589844 57.574219 18.9375 56.984375 18.316406 56.363281 C 17.691406 55.738281 17.101562 55.085938 16.542969 54.40625 C 15.984375 53.722656 15.460938 53.015625 14.96875 52.285156 C 14.480469 51.550781 14.027344 50.796875 13.613281 50.019531 C 13.199219 49.242188 12.820312 48.449219 12.484375 47.632812 C 12.148438 46.820312 11.851562 45.992188 11.59375 45.148438 C 11.339844 44.304688 11.125 43.453125 10.953125 42.585938 C 10.78125 41.722656 10.652344 40.851562 10.566406 39.976562 C 10.480469 39.097656 10.4375 38.21875 10.4375 37.339844 C 10.4375 36.457031 10.480469 35.578125 10.566406 34.703125 C 10.652344 33.824219 10.78125 32.953125 10.953125 32.089844 C 11.125 31.226562 11.339844 30.371094 11.59375 29.53125 C 11.851562 28.6875 12.148438 27.859375 12.484375 27.042969 C 12.820312 26.230469 13.199219 25.433594 13.613281 24.65625 C 14.027344 23.878906 14.480469 23.125 14.96875 22.394531 C 15.460938 21.660156 15.984375 20.953125 16.542969 20.273438 C 17.101562 19.589844 17.691406 18.9375 18.316406 18.316406 C 18.9375 17.691406 19.589844 17.101562 20.273438 16.542969 C 20.953125 15.984375 21.660156 15.460938 22.394531 14.96875 C 23.125 14.480469 23.878906 14.027344 24.65625 13.613281 C 25.433594 13.199219 26.230469 12.820312 27.042969 12.484375 C 27.859375 12.148438 28.6875 11.851562 29.53125 11.59375 C 30.371094 11.339844 31.226562 11.125 32.089844 10.953125 C 32.953125 10.78125 33.824219 10.652344 34.703125 10.566406 C 35.578125 10.480469 36.457031 10.4375 37.339844 10.4375 C 38.21875 10.4375 39.097656 10.480469 39.976562 10.566406 C 40.851562 10.652344 41.722656 10.78125 42.585938 10.953125 C 43.453125 11.125 44.304688 11.339844 45.148438 11.59375 C 45.992188 11.851562 46.820312 12.148438 47.632812 12.484375 C 48.449219 12.820312 49.242188 13.199219 50.019531 13.613281 C 50.796875 14.027344 51.550781 14.480469 52.285156 14.96875 C 53.015625 15.460938 53.722656 15.984375 54.40625 16.542969 C 55.085938 17.101562 55.738281 17.691406 56.363281 18.316406 C 56.984375 18.9375 57.574219 19.589844 58.132812 20.273438 C 58.695312 20.953125 59.21875 21.660156 59.707031 22.394531 C 60.195312 23.125 60.648438 23.878906 61.0625 24.65625 C 61.480469 25.433594 61.855469 26.230469 62.191406 27.042969 C 62.53125 27.859375 62.828125 28.6875 63.082031 29.53125 C 63.339844 30.371094 63.550781 31.226562 63.722656 32.089844 C 63.894531 32.953125 64.023438 33.824219 64.113281 34.703125 C 64.199219 35.578125 64.242188 36.457031 64.242188 37.339844 Z M 64.242188 37.339844 "/>
<g clip-path="url(#clip2)" clip-rule="nonzero">
<path style=" stroke:none;fill-rule:nonzero;fill:rgb(100%,100%,100%);fill-opacity:1;" d="M 31.519531 26.53125 C 31.519531 25.492188 31.871094 24.796875 32.734375 24.097656 C 33.253906 23.578125 33.949219 23.230469 34.8125 23.054688 L 34.8125 30.359375 C 33.429688 29.835938 32.734375 29.316406 32.390625 28.96875 C 31.699219 28.277344 31.519531 27.578125 31.519531 26.53125 Z M 45.035156 46.539062 C 45.035156 47.578125 44.691406 48.449219 43.828125 49.144531 C 43.132812 49.664062 42.265625 50.015625 41.226562 50.359375 L 41.226562 42.535156 C 42.785156 43.234375 43.652344 43.753906 44 44.101562 C 44.863281 44.621094 45.035156 45.492188 45.035156 46.539062 Z M 51.449219 36.796875 C 49.199219 34.882812 45.90625 33.3125 41.398438 32.273438 L 41.398438 23.230469 C 43.828125 23.753906 46.078125 24.796875 48.15625 26.359375 C 48.5 26.53125 48.851562 26.710938 49.199219 26.53125 C 49.542969 26.53125 49.890625 26.359375 50.0625 26.011719 L 54.050781 20.273438 C 54.222656 19.925781 54.394531 19.574219 54.222656 19.230469 C 54.222656 18.882812 53.878906 18.535156 53.699219 18.363281 C 49.890625 15.75 45.730469 14.183594 41.398438 13.664062 L 41.398438 11.753906 C 41.398438 11.058594 40.878906 10.359375 40.011719 10.359375 L 36.027344 10.359375 C 35.335938 10.359375 34.640625 10.878906 34.640625 11.753906 L 34.640625 13.664062 C 31.003906 14.011719 27.882812 15.402344 25.460938 17.664062 C 22.683594 20.101562 21.296875 23.40625 21.296875 27.402344 C 21.296875 31.40625 22.511719 34.359375 24.941406 36.445312 C 27.191406 38.363281 30.3125 39.753906 34.640625 40.796875 L 34.640625 50.183594 C 31.699219 49.492188 28.925781 47.925781 26.152344 45.492188 C 25.804688 45.3125 25.460938 45.144531 25.113281 45.144531 C 24.761719 45.144531 24.417969 45.3125 24.246094 45.664062 L 19.738281 51.054688 C 19.21875 51.578125 19.394531 52.449219 19.910156 52.96875 C 24.246094 56.796875 29.269531 59.058594 34.640625 59.925781 L 34.640625 63.230469 C 34.640625 63.925781 35.160156 64.621094 36.027344 64.621094 L 40.011719 64.621094 C 40.707031 64.621094 41.398438 64.101562 41.398438 63.230469 L 41.398438 59.925781 C 45.386719 59.578125 48.5 58.183594 51.101562 55.925781 C 53.878906 53.492188 55.433594 50.183594 55.433594 46.1875 C 55.257812 42.015625 54.050781 38.882812 51.449219 36.796875 "/>
</g>
</g>
</svg>
