<svg id="Capa_1" data-name="Capa 1" xmlns="http://www.w3.org/2000/svg" viewBox="0 0 957 260.31"><defs><style>.cls-1{fill:#fff;stroke:#fff;stroke-miterlimit:10;stroke-width:3px;}.cls-2{fill:#ffb846;}</style></defs><path class="cls-1" d="M290.34,155.9a46.66,46.66,0,0,1-7.21,8.73,43.89,43.89,0,0,1-9,6.62,45.87,45.87,0,0,1-10.31,4.21A41.91,41.91,0,0,1,252.69,177q-18.58,0-31.93-13.62a46.89,46.89,0,0,1-13.1-33.17,45.84,45.84,0,0,1,13.22-32.93q13.35-13.86,31.81-13.86a42.19,42.19,0,0,1,20.5,5.26,48.27,48.27,0,0,1,16.44,14.91L279,111.22a36.44,36.44,0,0,0-11.92-10.59,29.74,29.74,0,0,0-14.42-3.77,30.62,30.62,0,0,0-22.75,9.65,34.39,34.39,0,0,0,0,47.29q9.65,9.78,22.75,9.78,15.49,0,24.91-12.13v-8.77H255.08V129.31h35.38v25.85Z"/><path class="cls-1" d="M379.1,163.2Q365.65,176.94,347.29,177q-18.59,0-31.81-13.75a45.9,45.9,0,0,1-13.22-33,46.47,46.47,0,0,1,13.22-33q13.23-13.74,31.81-13.74,18.34,0,31.81,13.74a46.48,46.48,0,0,1,13.23,33.05A45.91,45.91,0,0,1,379.1,163.2Zm-9.05-56.69a31.65,31.65,0,0,0-45.51,0,34.39,34.39,0,0,0,0,47.29q9.65,9.78,22.75,9.78t22.76-9.78a34.74,34.74,0,0,0,0-47.29Z"/><path class="cls-1" d="M479.42,163.2Q466,176.94,447.61,177,429,177,415.8,163.2a45.91,45.91,0,0,1-13.23-33,46.48,46.48,0,0,1,13.23-33Q429,83.37,447.61,83.37q18.34,0,31.81,13.74a46.48,46.48,0,0,1,13.23,33.05A45.91,45.91,0,0,1,479.42,163.2Zm-9.05-56.69a31.67,31.67,0,0,0-45.52,0,34.41,34.41,0,0,0,0,47.29q9.66,9.78,22.76,9.78t22.76-9.78a34.74,34.74,0,0,0,0-47.29Z"/><path class="cls-1" d="M568.18,161.72Q555.67,174.85,538,174.84H505.51V85.59H538q17.63,0,30.14,13,12.75,12.89,12.75,31.57A43.94,43.94,0,0,1,568.18,161.72Zm-8.93-53.6A28.42,28.42,0,0,0,538,99H518.38v62.39H538a28.31,28.31,0,0,0,21.21-9,32.11,32.11,0,0,0,0-44.19Z"/><path class="cls-1" d="M595.35,174.84V85.59h12.86v75.76h37.53v13.49Z"/><path class="cls-1" d="M731.76,163.2Q718.31,176.94,700,177q-18.59,0-31.81-13.75a45.9,45.9,0,0,1-13.22-33,46.47,46.47,0,0,1,13.22-33Q681.37,83.37,700,83.37q18.34,0,31.81,13.74A46.48,46.48,0,0,1,745,130.16,45.91,45.91,0,0,1,731.76,163.2Zm-9-56.69a31.65,31.65,0,0,0-45.51,0,34.39,34.39,0,0,0,0,47.29q9.64,9.78,22.75,9.78t22.76-9.78a34.74,34.74,0,0,0,0-47.29Z"/><path class="cls-1" d="M832.08,163.2Q818.63,176.94,800.27,177q-18.59,0-31.93-13.62a46.85,46.85,0,0,1-13.1-33.17,45.8,45.8,0,0,1,13.22-32.93q13.34-13.86,31.81-13.86T833,98.1l-9.3,9.16q-10.25-10.41-23.47-10.4a30.64,30.64,0,0,0-22.76,9.65,34.41,34.41,0,0,0,0,47.29q9.66,9.78,22.76,9.78t23.47-10.52l8.34,8.29Z"/><path class="cls-1" d="M897.49,174.84l-33.36-38.23-4.41,4.81v33.42H846.86V85.59h12.86v37.14l35.75-37.14h18.11l-40,41.37,39.32,47.88Z"/><path class="cls-2" d="M106.19,219.2c-43.12,0-62.77-29.51-62.77-56.93,0-27.84,15-41.58,23.33-47.6,0-2.31-.08-4.65-.13-7-.45-21.27-.93-43.26,12-56.43,6.57-6.71,15.86-10.12,27.61-10.12,12.36,0,22.05,3.55,28.8,10.54,11.86,12.29,11.19,31.35,10.75,44-.07,2-.13,3.77-.13,5.34a7.3,7.3,0,0,1-14.6,0c0-1.72.06-3.69.14-5.85.36-10.15.9-25.49-6.67-33.33-3.94-4.08-9.93-6.07-18.29-6.07-7.78,0-13.4,1.87-17.17,5.73-8.6,8.78-8.18,28.51-7.8,45.91.08,3.78.16,7.51.16,11.13v3.9l-3.25,2.17C68.77,130.79,58,140.72,58,162.27c0,21.07,14.9,42.33,48.17,42.33s48.1-22.61,48.17-45.08c-1-20.28-8.1-25.41-10-26.44H101.81a7.3,7.3,0,1,1,0-14.6l45.23.14c2.06.41,20.23,5.06,21.91,40.38v.35C169,188.17,149.32,219.2,106.19,219.2Z"/><circle class="cls-2" cx="106.19" cy="159.35" r="13.14"/></svg>